<mxfile host="app.diagrams.net" modified="2021-08-06T08:31:40.112Z" agent="5.0 (Macintosh; Intel Mac OS X 10_15_7) AppleWebKit/537.36 (KHTML, like Gecko) Chrome/92.0.4515.107 Safari/537.36" etag="-Zz0V8WkxXPPjoIR9nVu" version="14.9.4" type="github">
  <diagram id="C5RBs43oDa-KdzZeNtuy" name="Page-1">
    <mxGraphModel dx="2214" dy="801" grid="1" gridSize="10" guides="1" tooltips="1" connect="1" arrows="1" fold="1" page="1" pageScale="1" pageWidth="827" pageHeight="1169" math="0" shadow="0">
      <root>
        <mxCell id="WIyWlLk6GJQsqaUBKTNV-0" />
        <mxCell id="WIyWlLk6GJQsqaUBKTNV-1" parent="WIyWlLk6GJQsqaUBKTNV-0" />
        <mxCell id="WIyWlLk6GJQsqaUBKTNV-2" value="" style="rounded=0;html=1;jettySize=auto;orthogonalLoop=1;fontSize=11;endArrow=block;endFill=0;endSize=8;strokeWidth=1;shadow=0;labelBackgroundColor=none;edgeStyle=orthogonalEdgeStyle;entryX=0.5;entryY=0;entryDx=0;entryDy=0;" parent="WIyWlLk6GJQsqaUBKTNV-1" source="WIyWlLk6GJQsqaUBKTNV-3" target="IUh2uq0GoIRJBH5Unvjb-2" edge="1">
          <mxGeometry relative="1" as="geometry">
            <mxPoint x="220" y="180" as="targetPoint" />
          </mxGeometry>
        </mxCell>
        <mxCell id="WIyWlLk6GJQsqaUBKTNV-3" value="ReactDom.render" style="rounded=1;whiteSpace=wrap;html=1;fontSize=12;glass=0;strokeWidth=1;shadow=0;" parent="WIyWlLk6GJQsqaUBKTNV-1" vertex="1">
          <mxGeometry x="160" y="80" width="120" height="40" as="geometry" />
        </mxCell>
        <mxCell id="IUh2uq0GoIRJBH5Unvjb-4" value="" style="edgeStyle=orthogonalEdgeStyle;rounded=0;orthogonalLoop=1;jettySize=auto;html=1;" edge="1" parent="WIyWlLk6GJQsqaUBKTNV-1" source="IUh2uq0GoIRJBH5Unvjb-2" target="IUh2uq0GoIRJBH5Unvjb-3">
          <mxGeometry relative="1" as="geometry" />
        </mxCell>
        <mxCell id="IUh2uq0GoIRJBH5Unvjb-2" value="render()&lt;br&gt;ReactDOMLegacy.js" style="rounded=1;whiteSpace=wrap;html=1;strokeColor=#000000;fillColor=#ffffff;" vertex="1" parent="WIyWlLk6GJQsqaUBKTNV-1">
          <mxGeometry x="160" y="160" width="120" height="60" as="geometry" />
        </mxCell>
        <mxCell id="IUh2uq0GoIRJBH5Unvjb-6" value="" style="edgeStyle=orthogonalEdgeStyle;rounded=0;orthogonalLoop=1;jettySize=auto;html=1;" edge="1" parent="WIyWlLk6GJQsqaUBKTNV-1" source="IUh2uq0GoIRJBH5Unvjb-3" target="IUh2uq0GoIRJBH5Unvjb-5">
          <mxGeometry relative="1" as="geometry" />
        </mxCell>
        <mxCell id="IUh2uq0GoIRJBH5Unvjb-20" value="" style="edgeStyle=orthogonalEdgeStyle;rounded=0;orthogonalLoop=1;jettySize=auto;html=1;" edge="1" parent="WIyWlLk6GJQsqaUBKTNV-1" source="IUh2uq0GoIRJBH5Unvjb-3" target="IUh2uq0GoIRJBH5Unvjb-19">
          <mxGeometry relative="1" as="geometry" />
        </mxCell>
        <mxCell id="IUh2uq0GoIRJBH5Unvjb-3" value="&lt;div style=&quot;font-family: &amp;#34;menlo&amp;#34; , &amp;#34;monaco&amp;#34; , &amp;#34;courier new&amp;#34; , monospace ; line-height: 18px&quot;&gt;&lt;font color=&quot;#333333&quot;&gt;legacyRenderSubtreeIntoContainer()&lt;/font&gt;&lt;/div&gt;" style="rounded=1;whiteSpace=wrap;html=1;" vertex="1" parent="WIyWlLk6GJQsqaUBKTNV-1">
          <mxGeometry x="75" y="270" width="290" height="40" as="geometry" />
        </mxCell>
        <mxCell id="IUh2uq0GoIRJBH5Unvjb-8" value="" style="edgeStyle=orthogonalEdgeStyle;rounded=0;orthogonalLoop=1;jettySize=auto;html=1;" edge="1" parent="WIyWlLk6GJQsqaUBKTNV-1" source="IUh2uq0GoIRJBH5Unvjb-5" target="IUh2uq0GoIRJBH5Unvjb-7">
          <mxGeometry relative="1" as="geometry" />
        </mxCell>
        <mxCell id="IUh2uq0GoIRJBH5Unvjb-10" style="edgeStyle=orthogonalEdgeStyle;rounded=0;orthogonalLoop=1;jettySize=auto;html=1;" edge="1" parent="WIyWlLk6GJQsqaUBKTNV-1" source="IUh2uq0GoIRJBH5Unvjb-5" target="IUh2uq0GoIRJBH5Unvjb-9">
          <mxGeometry relative="1" as="geometry" />
        </mxCell>
        <mxCell id="IUh2uq0GoIRJBH5Unvjb-5" value="&lt;div style=&quot;color: rgb(212 , 212 , 212) ; background-color: rgb(30 , 30 , 30) ; font-family: &amp;#34;menlo&amp;#34; , &amp;#34;monaco&amp;#34; , &amp;#34;courier new&amp;#34; , monospace ; line-height: 18px&quot;&gt;&lt;span style=&quot;color: #dcdcaa&quot;&gt;legacyCreateRootFromDOMContainer()&lt;/span&gt;&lt;/div&gt;&lt;div style=&quot;background-color: rgb(30 , 30 , 30) ; font-family: &amp;#34;menlo&amp;#34; , &amp;#34;monaco&amp;#34; , &amp;#34;courier new&amp;#34; , monospace ; line-height: 18px&quot;&gt;&lt;font color=&quot;#dcdcaa&quot;&gt;创建整个应用的根节点，并且初始化空的当前已渲染的熟（rootFiber）&lt;/font&gt;&lt;/div&gt;" style="rounded=1;whiteSpace=wrap;html=1;" vertex="1" parent="WIyWlLk6GJQsqaUBKTNV-1">
          <mxGeometry x="-160" y="360" width="260" height="70" as="geometry" />
        </mxCell>
        <mxCell id="IUh2uq0GoIRJBH5Unvjb-12" value="" style="edgeStyle=orthogonalEdgeStyle;rounded=0;orthogonalLoop=1;jettySize=auto;html=1;" edge="1" parent="WIyWlLk6GJQsqaUBKTNV-1" source="IUh2uq0GoIRJBH5Unvjb-7" target="IUh2uq0GoIRJBH5Unvjb-11">
          <mxGeometry relative="1" as="geometry" />
        </mxCell>
        <mxCell id="IUh2uq0GoIRJBH5Unvjb-7" value="&lt;div style=&quot;color: rgb(212 , 212 , 212) ; background-color: rgb(30 , 30 , 30) ; font-family: &amp;#34;menlo&amp;#34; , &amp;#34;monaco&amp;#34; , &amp;#34;courier new&amp;#34; , monospace ; line-height: 18px&quot;&gt;&lt;span style=&quot;color: #dcdcaa&quot;&gt;createContainer()&lt;/span&gt;&lt;/div&gt;&lt;div style=&quot;color: rgb(212 , 212 , 212) ; background-color: rgb(30 , 30 , 30) ; font-family: &amp;#34;menlo&amp;#34; , &amp;#34;monaco&amp;#34; , &amp;#34;courier new&amp;#34; , monospace ; line-height: 18px&quot;&gt;&lt;span style=&quot;color: rgb(220 , 220 , 170) ; font-family: &amp;#34;menlo&amp;#34; , &amp;#34;monaco&amp;#34; , &amp;#34;courier new&amp;#34; , monospace&quot;&gt;ReactFiberReconciler.new.js&lt;/span&gt;&lt;span style=&quot;color: #dcdcaa&quot;&gt;&lt;br&gt;&lt;/span&gt;&lt;/div&gt;" style="rounded=1;whiteSpace=wrap;html=1;" vertex="1" parent="WIyWlLk6GJQsqaUBKTNV-1">
          <mxGeometry x="-80" y="490" width="230" height="50" as="geometry" />
        </mxCell>
        <mxCell id="IUh2uq0GoIRJBH5Unvjb-9" value="&lt;div style=&quot;color: rgb(212 , 212 , 212) ; background-color: rgb(30 , 30 , 30) ; font-family: &amp;#34;menlo&amp;#34; , &amp;#34;monaco&amp;#34; , &amp;#34;courier new&amp;#34; , monospace ; line-height: 18px&quot;&gt;&lt;div style=&quot;font-family: &amp;#34;menlo&amp;#34; , &amp;#34;monaco&amp;#34; , &amp;#34;courier new&amp;#34; , monospace ; line-height: 18px&quot;&gt;&lt;span style=&quot;color: #dcdcaa&quot;&gt;listenToAllSupportedEvents()&lt;/span&gt;&lt;/div&gt;&lt;/div&gt;" style="rounded=1;whiteSpace=wrap;html=1;" vertex="1" parent="WIyWlLk6GJQsqaUBKTNV-1">
          <mxGeometry x="-340" y="490" width="210" height="50" as="geometry" />
        </mxCell>
        <mxCell id="IUh2uq0GoIRJBH5Unvjb-14" value="" style="edgeStyle=orthogonalEdgeStyle;rounded=0;orthogonalLoop=1;jettySize=auto;html=1;" edge="1" parent="WIyWlLk6GJQsqaUBKTNV-1" source="IUh2uq0GoIRJBH5Unvjb-11" target="IUh2uq0GoIRJBH5Unvjb-13">
          <mxGeometry relative="1" as="geometry" />
        </mxCell>
        <mxCell id="IUh2uq0GoIRJBH5Unvjb-11" value="&lt;div style=&quot;background-color: rgb(30 , 30 , 30) ; line-height: 18px&quot;&gt;&lt;div style=&quot;color: rgb(212 , 212 , 212) ; font-family: &amp;#34;menlo&amp;#34; , &amp;#34;monaco&amp;#34; , &amp;#34;courier new&amp;#34; , monospace ; line-height: 18px&quot;&gt;&lt;span style=&quot;color: #dcdcaa&quot;&gt;createFiberRoot()&lt;/span&gt;&lt;/div&gt;&lt;div style=&quot;line-height: 18px&quot;&gt;&lt;font color=&quot;#dcdcaa&quot; face=&quot;Menlo, Monaco, Courier New, monospace&quot;&gt;ReactFiberRoot.new.js&lt;/font&gt;&lt;br&gt;&lt;/div&gt;&lt;div style=&quot;line-height: 18px&quot;&gt;&lt;div style=&quot;color: rgb(212 , 212 , 212) ; font-family: &amp;#34;menlo&amp;#34; , &amp;#34;monaco&amp;#34; , &amp;#34;courier new&amp;#34; , monospace ; line-height: 18px&quot;&gt;&lt;span style=&quot;color: #4ec9b0&quot;&gt;FiberRoot.current = rootFiber&lt;/span&gt;&lt;/div&gt;&lt;/div&gt;&lt;/div&gt;" style="rounded=1;whiteSpace=wrap;html=1;" vertex="1" parent="WIyWlLk6GJQsqaUBKTNV-1">
          <mxGeometry x="-85" y="585" width="240" height="75" as="geometry" />
        </mxCell>
        <mxCell id="IUh2uq0GoIRJBH5Unvjb-16" value="" style="edgeStyle=orthogonalEdgeStyle;rounded=0;orthogonalLoop=1;jettySize=auto;html=1;" edge="1" parent="WIyWlLk6GJQsqaUBKTNV-1" source="IUh2uq0GoIRJBH5Unvjb-13" target="IUh2uq0GoIRJBH5Unvjb-15">
          <mxGeometry relative="1" as="geometry" />
        </mxCell>
        <mxCell id="IUh2uq0GoIRJBH5Unvjb-13" value="&lt;div style=&quot;color: rgb(212 , 212 , 212) ; background-color: rgb(30 , 30 , 30) ; font-family: &amp;#34;menlo&amp;#34; , &amp;#34;monaco&amp;#34; , &amp;#34;courier new&amp;#34; , monospace ; line-height: 18px&quot;&gt;&lt;span style=&quot;color: #dcdcaa&quot;&gt;createHostRootFiber()&lt;/span&gt;&lt;/div&gt;&lt;div style=&quot;background-color: rgb(30 , 30 , 30) ; line-height: 18px&quot;&gt;&lt;font color=&quot;#dcdcaa&quot; face=&quot;menlo, monaco, courier new, monospace&quot;&gt;ReactFiber.new.js&lt;/font&gt;&lt;br&gt;&lt;/div&gt;" style="rounded=1;whiteSpace=wrap;html=1;" vertex="1" parent="WIyWlLk6GJQsqaUBKTNV-1">
          <mxGeometry x="-62.5" y="710" width="195" height="60" as="geometry" />
        </mxCell>
        <mxCell id="IUh2uq0GoIRJBH5Unvjb-15" value="&lt;div style=&quot;color: rgb(212 , 212 , 212) ; background-color: rgb(30 , 30 , 30) ; font-family: &amp;#34;menlo&amp;#34; , &amp;#34;monaco&amp;#34; , &amp;#34;courier new&amp;#34; , monospace ; line-height: 18px&quot;&gt;&lt;span style=&quot;color: #dcdcaa&quot;&gt;createFiber()&lt;/span&gt;&lt;/div&gt;" style="whiteSpace=wrap;html=1;rounded=1;" vertex="1" parent="WIyWlLk6GJQsqaUBKTNV-1">
          <mxGeometry x="-25" y="810" width="120" height="40" as="geometry" />
        </mxCell>
        <mxCell id="IUh2uq0GoIRJBH5Unvjb-22" value="" style="edgeStyle=orthogonalEdgeStyle;rounded=0;orthogonalLoop=1;jettySize=auto;html=1;" edge="1" parent="WIyWlLk6GJQsqaUBKTNV-1" source="IUh2uq0GoIRJBH5Unvjb-19" target="IUh2uq0GoIRJBH5Unvjb-21">
          <mxGeometry relative="1" as="geometry" />
        </mxCell>
        <mxCell id="IUh2uq0GoIRJBH5Unvjb-19" value="&lt;div style=&quot;color: rgb(212 , 212 , 212) ; background-color: rgb(30 , 30 , 30) ; font-family: &amp;#34;menlo&amp;#34; , &amp;#34;monaco&amp;#34; , &amp;#34;courier new&amp;#34; , monospace ; line-height: 18px&quot;&gt;&lt;span style=&quot;color: #dcdcaa&quot;&gt;updateContainer()&lt;/span&gt;&lt;/div&gt;&lt;div style=&quot;background-color: rgb(30 , 30 , 30) ; line-height: 18px&quot;&gt;&lt;font color=&quot;#dcdcaa&quot; face=&quot;Menlo, Monaco, Courier New, monospace&quot;&gt;ReactFiberReconciler.new.js&lt;/font&gt;&lt;br&gt;&lt;/div&gt;" style="whiteSpace=wrap;html=1;rounded=1;" vertex="1" parent="WIyWlLk6GJQsqaUBKTNV-1">
          <mxGeometry x="365" y="360" width="235" height="50" as="geometry" />
        </mxCell>
        <mxCell id="IUh2uq0GoIRJBH5Unvjb-21" value="&lt;div style=&quot;color: rgb(212 , 212 , 212) ; background-color: rgb(30 , 30 , 30) ; font-family: &amp;#34;menlo&amp;#34; , &amp;#34;monaco&amp;#34; , &amp;#34;courier new&amp;#34; , monospace ; line-height: 18px&quot;&gt;&lt;span style=&quot;color: #dcdcaa&quot;&gt;scheduleUpdateOnFiber()&lt;/span&gt;&lt;/div&gt;&lt;div style=&quot;background-color: rgb(30 , 30 , 30) ; line-height: 18px&quot;&gt;&lt;font color=&quot;#dcdcaa&quot; face=&quot;Menlo, Monaco, Courier New, monospace&quot;&gt;ReactFiberWorkLoop.new.js&lt;/font&gt;&lt;br&gt;&lt;/div&gt;" style="whiteSpace=wrap;html=1;rounded=1;" vertex="1" parent="WIyWlLk6GJQsqaUBKTNV-1">
          <mxGeometry x="383.75" y="460" width="197.5" height="65" as="geometry" />
        </mxCell>
      </root>
    </mxGraphModel>
  </diagram>
</mxfile>
